# 3ds Max Wavefront OBJ Exporter v0.97b - (c)2007 guruware
# File Created: 05.05.2015 22:58:26

#
# object Box005
#

v  -9.7190 -1.9912 -10.4064
v  1.0504 -1.9912 -10.4064
v  -9.7190 -1.9912 -11.7821
v  1.0504 -1.9912 -11.7821
v  -9.7190 -1.0912 -10.4064
v  1.0504 -1.1902 -10.4064
v  -9.7190 -1.0912 -11.7821
v  1.0504 -1.1902 -11.7821
v  -6.1292 -1.9912 -11.7821
v  -2.5394 -1.9912 -11.7821
v  -2.5394 -1.9912 -10.4064
v  -6.1292 -1.9912 -10.4064
v  -6.1292 -1.0390 -10.4064
v  -2.5394 -1.0390 -10.4064
v  -2.5394 -1.1559 -11.7821
v  -6.1292 -1.1559 -11.7821
v  0.5557 -1.9912 -10.4064
v  0.5557 -1.1236 -11.7821
v  0.5557 -1.9912 -11.7821
v  0.5557 -1.0651 -10.4064
v  -9.0620 -2.0026 -9.6208
v  -8.0527 -2.0026 -9.6208
v  -9.0620 -2.0026 -12.5678
v  -8.0527 -2.0026 -12.5678
v  -9.0620 0.4974 -9.6208
v  -8.0527 0.4974 -9.6208
v  -9.0620 0.4974 -12.5678
v  -8.0527 0.4974 -12.5678
v  -0.6308 -2.0026 -9.6208
v  0.3785 -2.0026 -9.6208
v  -0.6308 -2.0026 -12.5678
v  0.3785 -2.0026 -12.5678
v  -0.6308 0.4974 -9.6208
v  0.3785 0.4974 -9.6208
v  -0.6308 0.4974 -12.5678
v  0.3785 0.4974 -12.5678
v  -10.6352 0.1899 -9.2841
v  1.8878 0.2327 -9.2841
v  -10.6352 0.1899 -12.9045
v  1.8878 0.2327 -12.9045
v  -10.7137 1.0864 -9.2841
v  1.9662 1.1292 -9.2841
v  -10.7137 1.0864 -12.9045
v  1.9662 1.1292 -12.9045
v  1.0675 0.3212 -12.9045
v  1.0675 0.3212 -9.2841
v  1.0675 1.2212 -9.2841
v  1.0675 1.2212 -12.9045
v  -2.0539 0.0542 -12.7579
v  -2.0539 1.1666 -9.2841
v  -2.0539 0.2034 -9.2841
v  -2.0539 1.0654 -12.7579
v  -10.0283 0.3212 -12.9045
v  -10.0283 1.2212 -9.2841
v  -10.0283 0.3212 -9.2841
v  -10.0283 1.2212 -12.9045
v  -7.2046 0.2034 -9.2841
v  -7.2046 1.0654 -12.7579
v  -7.2046 0.0542 -12.7579
v  -7.2046 1.1666 -9.2841
# 60 vertices

vn 0.0000 -1.0000 -0.0000
vn 0.0000 -1.0000 -0.0000
vn 0.0000 -1.0000 -0.0000
vn 0.0000 -1.0000 -0.0000
vn 0.0042 0.9964 -0.0847
vn 0.0017 0.9969 -0.0791
vn 0.0090 0.9964 -0.0847
vn 0.0052 0.9972 -0.0748
vn 0.0000 0.0000 1.0000
vn 0.0000 0.0000 1.0000
vn 0.0000 0.0000 1.0000
vn 0.0000 0.0000 1.0000
vn 1.0000 0.0000 -0.0000
vn 1.0000 0.0000 -0.0000
vn 1.0000 0.0000 -0.0000
vn 1.0000 0.0000 -0.0000
vn 0.0000 0.0000 -1.0000
vn 0.0000 0.0000 -1.0000
vn 0.0000 0.0000 -1.0000
vn 0.0000 0.0000 -1.0000
vn -1.0000 0.0000 -0.0000
vn -1.0000 0.0000 -0.0000
vn -1.0000 0.0000 -0.0000
vn -1.0000 0.0000 -0.0000
vn 0.0000 -1.0000 -0.0000
vn 0.0000 -1.0000 -0.0000
vn 0.0000 -1.0000 -0.0000
vn 0.0000 -1.0000 -0.0000
vn 0.0000 -1.0000 -0.0000
vn 0.0000 -1.0000 -0.0000
vn 0.0000 -1.0000 -0.0000
vn 0.0000 -1.0000 -0.0000
vn 0.1203 0.9916 -0.0478
vn 0.0746 0.9969 -0.0259
vn 0.0017 0.9969 -0.0791
vn 0.0042 0.9964 -0.0847
vn -0.0070 0.9998 -0.0198
vn -0.0146 0.9999 -0.0000
vn 0.0052 0.9972 -0.0748
vn 0.0090 0.9964 -0.0847
vn 0.0000 0.0000 1.0000
vn 0.0000 0.0000 1.0000
vn 0.0000 0.0000 1.0000
vn 0.0000 0.0000 1.0000
vn 0.0000 0.0000 1.0000
vn 0.0000 0.0000 1.0000
vn 0.0000 0.0000 1.0000
vn 0.0000 0.0000 1.0000
vn 0.0000 0.0000 -1.0000
vn 0.0000 0.0000 -1.0000
vn 0.0000 0.0000 -1.0000
vn 0.0000 0.0000 -1.0000
vn 0.0000 0.0000 -1.0000
vn 0.0000 0.0000 -1.0000
vn 0.0000 0.0000 -1.0000
vn 0.0000 0.0000 -1.0000
vn 0.0000 -1.0000 -0.0000
vn 0.0000 -1.0000 -0.0000
vn 0.0000 -1.0000 -0.0000
vn 0.0000 -1.0000 -0.0000
vn 0.2205 0.9749 -0.0321
vn 0.1334 0.9911 -0.0000
vn 0.0746 0.9969 -0.0259
vn 0.1203 0.9916 -0.0478
vn 0.0000 0.0000 1.0000
vn 0.0000 0.0000 1.0000
vn 0.0000 0.0000 1.0000
vn 0.0000 0.0000 1.0000
vn 0.0000 0.0000 -1.0000
vn 0.0000 0.0000 -1.0000
vn 0.0000 0.0000 -1.0000
vn 0.0000 0.0000 -1.0000
vn 0.0000 -1.0000 -0.0000
vn 0.0000 -1.0000 -0.0000
vn 0.0000 -1.0000 -0.0000
vn 0.0000 -1.0000 -0.0000
vn 0.0000 0.0000 1.0000
vn 0.0000 0.0000 1.0000
vn 0.0000 0.0000 1.0000
vn 0.0000 0.0000 1.0000
vn 1.0000 0.0000 -0.0000
vn 1.0000 0.0000 -0.0000
vn 1.0000 0.0000 -0.0000
vn 1.0000 0.0000 -0.0000
vn 0.0000 0.0000 -1.0000
vn 0.0000 0.0000 -1.0000
vn 0.0000 0.0000 -1.0000
vn 0.0000 0.0000 -1.0000
vn -1.0000 0.0000 -0.0000
vn -1.0000 0.0000 -0.0000
vn -1.0000 0.0000 -0.0000
vn -1.0000 0.0000 -0.0000
vn 0.0000 -1.0000 -0.0000
vn 0.0000 -1.0000 -0.0000
vn 0.0000 -1.0000 -0.0000
vn 0.0000 -1.0000 -0.0000
vn 0.0000 0.0000 1.0000
vn 0.0000 0.0000 1.0000
vn 0.0000 0.0000 1.0000
vn 0.0000 0.0000 1.0000
vn 1.0000 0.0000 -0.0000
vn 1.0000 0.0000 -0.0000
vn 1.0000 0.0000 -0.0000
vn 1.0000 0.0000 -0.0000
vn 0.0000 0.0000 -1.0000
vn 0.0000 0.0000 -1.0000
vn 0.0000 0.0000 -1.0000
vn 0.0000 0.0000 -1.0000
vn -1.0000 0.0000 -0.0000
vn -1.0000 0.0000 -0.0000
vn -1.0000 0.0000 -0.0000
vn -1.0000 0.0000 -0.0000
vn 0.2114 -0.9774 -0.0000
vn 0.0619 -0.9981 -0.0000
vn 0.0742 -0.9972 0.0122
vn 0.2114 -0.9774 -0.0000
vn -0.0873 0.9962 -0.0000
vn -0.0788 0.9969 -0.0081
vn -0.1929 0.9812 -0.0000
vn -0.1929 0.9812 -0.0000
vn 0.0000 0.0000 1.0000
vn 0.0000 0.0000 1.0000
vn 0.0000 0.0000 1.0000
vn 0.0000 0.0000 1.0000
vn 0.9962 -0.0872 -0.0000
vn 0.9962 -0.0872 -0.0000
vn 0.9962 -0.0872 -0.0000
vn 0.9962 -0.0872 -0.0000
vn -0.0233 0.0000 -0.9997
vn -0.0239 0.0000 -0.9997
vn 0.0000 0.0000 -1.0000
vn 0.0000 0.0000 -1.0000
vn -0.9962 -0.0872 -0.0000
vn -0.9962 -0.0872 -0.0000
vn -0.9962 -0.0872 -0.0000
vn -0.9962 -0.0872 -0.0000
vn -0.1073 -0.9942 -0.0000
vn -0.1073 -0.9942 -0.0000
vn -0.0349 -0.9994 -0.0000
vn -0.0230 -0.9997 0.0113
vn 0.1017 0.9948 -0.0000
vn 0.1017 0.9948 -0.0000
vn 0.0272 0.9996 -0.0000
vn 0.0347 0.9994 -0.0078
vn 0.0000 0.0000 1.0000
vn 0.0000 0.0000 1.0000
vn 0.0000 0.0000 1.0000
vn 0.0000 0.0000 1.0000
vn -0.0228 0.0000 -0.9997
vn -0.0238 0.0000 -0.9997
vn -0.0239 0.0000 -0.9997
vn -0.0233 0.0000 -0.9997
vn -0.0230 -0.9997 0.0113
vn -0.0349 -0.9994 -0.0000
vn 0.0301 -0.9991 0.0312
vn 0.0442 -0.9981 0.0428
vn 0.0347 0.9994 -0.0078
vn 0.0272 0.9996 -0.0000
vn -0.0179 0.9996 -0.0210
vn -0.0087 0.9995 -0.0291
vn 0.0000 0.0000 1.0000
vn 0.0000 0.0000 1.0000
vn 0.0000 0.0000 1.0000
vn 0.0000 0.0000 1.0000
vn 0.0251 -0.0000 -0.9997
vn 0.0264 -0.0000 -0.9997
vn -0.0238 0.0000 -0.9997
vn -0.0228 0.0000 -0.9997
vn -0.0366 -0.9989 0.0303
vn -0.0208 -0.9989 0.0429
vn 0.0742 -0.9972 0.0122
vn 0.0619 -0.9981 -0.0000
vn 0.0175 0.9996 -0.0207
vn 0.0287 0.9992 -0.0291
vn -0.0788 0.9969 -0.0081
vn -0.0873 0.9962 -0.0000
vn 0.0000 0.0000 1.0000
vn 0.0000 0.0000 1.0000
vn 0.0000 0.0000 1.0000
vn 0.0000 0.0000 1.0000
vn 0.0000 0.0000 -1.0000
vn 0.0000 0.0000 -1.0000
vn 0.0272 0.0000 -0.9996
vn 0.0250 -0.0000 -0.9997
vn 0.0250 -0.0000 -0.9997
vn 0.0272 0.0000 -0.9996
vn 0.0264 -0.0000 -0.9997
vn 0.0251 -0.0000 -0.9997
vn 0.0442 -0.9981 0.0428
vn 0.0301 -0.9991 0.0312
vn -0.0208 -0.9989 0.0429
vn -0.0366 -0.9989 0.0303
vn -0.0087 0.9995 -0.0291
vn -0.0179 0.9996 -0.0210
vn 0.0287 0.9992 -0.0291
vn 0.0175 0.9996 -0.0207
vn 0.0000 0.0000 1.0000
vn 0.0000 0.0000 1.0000
vn 0.0000 0.0000 1.0000
vn 0.0000 0.0000 1.0000
# 200 vertex normals

vt 1.2246 0.2895 -3.7088
vt -0.2246 0.2895 4.7088
vt -0.2246 0.2895 -3.7088
vt 1.2246 0.2895 4.7088
vt 1.2246 0.6874 -3.7088
vt -0.2246 0.6436 4.7088
vt -0.2246 0.6874 -3.7088
vt 1.2246 0.6436 4.7088
vt 1.9029 1.2246 0.2895
vt -0.9029 1.2246 0.2895
vt -0.9029 -0.2246 0.2895
vt 1.9029 -0.2246 0.2895
vt -0.9029 -0.2246 0.7105
vt 1.9029 -0.2246 0.7105
vt 1.9029 1.2246 0.6588
vt -0.9029 1.2246 0.6588
vt -3.3221 -0.2246 0.2895
vt 4.3221 1.2246 0.6731
vt -3.3221 1.2246 0.2895
vt 4.3221 -0.2246 0.6989
vt -0.9029 0.2895 -0.2246
vt 1.9029 0.2895 -0.2246
vt 1.9029 0.7105 -0.2246
vt -0.9029 0.7105 -0.2246
vt -0.9029 0.2895 1.2246
vt 1.9029 0.2895 1.2246
vt 1.9029 0.6588 1.2246
vt -0.9029 0.6588 1.2246
vt 4.7088 -0.2246 0.2895
vt 4.7088 1.2246 0.2895
vt -3.7088 1.2246 0.6874
vt -3.7088 -0.2246 0.6874
vt 1.9029 0.2895 -0.2246
vt 4.3221 0.2895 -0.2246
vt 4.3221 0.6989 -0.2246
vt 1.9029 0.7105 -0.2246
vt -0.9029 0.7105 -0.2246
vt -3.7088 0.6874 -0.2246
vt -3.7088 0.2895 -0.2246
vt -0.9029 0.2895 -0.2246
vt 1.9029 0.2895 1.2246
vt 4.7088 0.2895 1.2246
vt 4.7088 0.6874 1.2246
vt 1.9029 0.6588 1.2246
vt -0.9029 0.6588 1.2246
vt -3.3221 0.6731 1.2246
vt -3.3221 0.2895 1.2246
vt -0.9029 0.2895 1.2246
vt -3.7088 1.2246 0.2895
vt -3.7088 -0.2246 0.2895
vt 4.7088 -0.2246 0.6436
vt 4.7088 1.2246 0.6436
vt 4.3221 0.2895 -0.2246
vt 4.7088 0.2895 -0.2246
vt 4.7088 0.6436 -0.2246
vt 4.3221 0.6989 -0.2246
vt -3.3221 0.6731 1.2246
vt -3.7088 0.6436 1.2246
vt -3.7088 0.2895 1.2246
vt -3.3221 0.2895 1.2246
vt 1.0000 0.0000 0.0000
vt 0.0000 1.0000 1.0000
vt 0.0000 1.0000 0.0000
vt 0.0000 1.0000 1.0000
vt 1.0000 0.0000 0.0000
vt 1.0000 1.0000 0.0000
vt 0.0000 1.0000 0.0000
vt 0.0000 0.0000 0.0000
vt 0.0000 0.0000 0.0000
vt 1.0000 0.0000 0.0000
vt 1.0000 1.0000 0.0000
vt 0.0000 1.0000 0.0000
vt 0.0000 0.0000 1.0000
vt 1.0000 0.0000 1.0000
vt 1.0000 1.0000 1.0000
vt 0.0000 0.0000 1.0000
vt 1.0000 0.0000 1.0000
vt 1.0000 1.0000 1.0000
vt 0.0000 0.0000 0.0000
vt 1.0000 1.0000 0.0000
vt 1.0000 0.0000 0.0000
vt 0.0000 1.0000 1.0000
vt 0.0000 1.0000 0.0000
vt 0.0000 1.0000 1.0000
vt 1.0000 0.0000 0.0000
vt 1.0000 1.0000 0.0000
vt 0.0000 1.0000 0.0000
vt 0.0000 0.0000 0.0000
vt 0.0000 0.0000 0.0000
vt 1.0000 0.0000 0.0000
vt 1.0000 1.0000 0.0000
vt 0.0000 1.0000 0.0000
vt 0.0000 0.0000 1.0000
vt 1.0000 0.0000 1.0000
vt 1.0000 1.0000 1.0000
vt 0.0000 0.0000 1.0000
vt 1.0000 0.0000 1.0000
vt 1.0000 1.0000 1.0000
vt 0.0000 0.0000 0.0000
vt 1.0000 1.0000 0.0000
vt 1.5735 0.0475 0.3690
vt 0.0475 0.3815 1.5735
vt 1.5735 0.9525 0.3690
vt 0.9525 0.3815 1.5735
vt -0.5870 0.0475 0.6312
vt 0.0475 0.6438 1.5870
vt -0.5870 0.9525 0.6312
vt 0.9525 0.6438 1.5870
vt -0.4329 0.4074 0.9525
vt -0.4329 0.0475 0.4074
vt 1.4329 0.0475 0.6706
vt -0.4329 0.6706 0.9525
vt 0.1023 0.3294 0.9159
vt 0.8977 0.0475 0.6547
vt 0.1023 0.0475 0.3730
vt 0.1023 0.6251 0.9159
vt 1.4695 0.9525 0.4074
vt -0.4695 0.0475 0.6706
vt 1.4695 0.0475 0.4074
vt -0.4695 0.9525 0.6706
vt 0.9853 0.0475 0.3730
vt 0.9853 0.6251 0.9159
vt 0.9853 0.3294 0.9159
vt 0.0147 0.0475 0.6547
vt -0.5735 0.3690 0.0475
vt -0.4695 0.4074 0.0475
vt -0.4695 0.6706 0.0475
vt -0.5870 0.6312 0.0475
vt -0.5735 0.3815 0.9525
vt -0.5870 0.6438 0.9525
vt 0.0475 0.3690 -0.5735
vt 0.9525 0.3690 -0.5735
vt 0.9525 0.6312 -0.5870
vt 0.0475 0.6312 -0.5870
vt -0.4329 0.9525 0.4074
vt -0.5735 0.9525 0.3815
vt -0.5735 0.0475 0.3815
vt 1.5870 0.0475 0.6438
vt 1.5870 0.9525 0.6438
vt 1.4329 0.9525 0.6706
vt 1.4329 0.4074 0.0475
vt 1.5735 0.3815 0.0475
vt 1.5870 0.6438 0.0475
vt 1.4329 0.6706 0.0475
vt 0.1023 0.9159 0.3294
vt -0.4329 0.9525 0.4074
vt 1.4329 0.9525 0.6706
vt 0.8977 0.9159 0.6251
vt 0.8977 0.3730 0.0475
vt 1.4329 0.4074 0.0475
vt 1.4329 0.6706 0.0475
vt 0.8977 0.6547 0.0475
vt 0.9853 0.9159 0.3294
vt 0.0147 0.9159 0.6251
vt -0.4695 0.4074 0.0475
vt 0.0147 0.3730 0.0475
vt 0.0147 0.6547 0.0475
vt -0.4695 0.6706 0.0475
vt 1.4695 0.4074 0.9525
vt 1.5735 0.3690 0.9525
vt 1.5870 0.6312 0.9525
vt 1.4695 0.6706 0.9525
vt 1.4695 0.4074 0.9525
vt 1.4695 0.6706 0.9525
vt 0.9853 0.9159 0.3294
vt 0.1023 0.9159 0.3294
vt 0.8977 0.9159 0.6251
vt 0.0147 0.9159 0.6251
vt 0.0147 0.3730 0.0475
vt 0.8977 0.3730 0.0475
vt 0.8977 0.6547 0.0475
vt 0.0147 0.6547 0.0475
# 172 texture coords

g Box005
s 2
f 10/10/1 11/11/2 12/12/3 9/9/4 
s 4
f 14/14/5 15/15/6 16/16/7 13/13/8 
s 8
f 11/22/9 14/23/10 13/24/11 12/21/12 
s 16
f 2/2/13 4/4/14 8/8/15 6/6/16 
s 32
f 9/26/17 16/27/18 15/28/19 10/25/20 
s 64
f 3/3/21 1/1/22 5/5/23 7/7/24 
s 2
f 19/19/25 17/17/26 11/11/27 10/10/28 
f 1/29/29 3/30/30 9/9/31 12/12/32 
s 4
f 20/20/33 18/18/34 15/15/35 14/14/36 
f 7/31/37 5/32/38 13/13/39 16/16/40 
s 8
f 11/33/41 17/34/42 20/35/43 14/36/44 
f 5/38/45 1/39/46 12/40/47 13/37/48 
s 32
f 3/42/49 7/43/50 16/44/51 9/41/52 
f 15/45/53 18/46/54 19/47/55 10/48/56 
s 2
f 4/49/57 2/50/58 17/17/59 19/19/60 
s 4
f 6/51/61 8/52/62 18/18/63 20/20/64 
s 8
f 17/53/65 2/54/66 6/55/67 20/56/68 
s 32
f 18/57/69 8/58/70 4/59/71 19/60/72 
s 2
f 24/67/73 22/68/74 21/65/75 23/66/76 
s 8
f 26/71/77 25/72/78 21/69/79 22/70/80 
s 16
f 28/75/81 26/62/82 22/73/83 24/74/84 
s 32
f 27/78/85 28/64/86 24/76/87 23/77/88 
s 64
f 25/80/89 27/63/90 23/79/91 21/61/92 
s 2
f 32/87/93 30/88/94 29/85/95 31/86/96 
s 8
f 34/91/97 33/92/98 29/89/99 30/90/100 
s 16
f 36/95/101 34/82/102 30/93/103 32/94/104 
s 32
f 35/98/105 36/84/106 32/96/107 31/97/108 
s 64
f 33/100/109 35/83/110 31/99/111 29/81/112 
s 2
f 39/103/113 53/117/114 55/119/115 37/101/116 
s 4
f 54/118/117 56/120/118 43/107/119 41/105/120 
s 8
f 55/126/121 54/127/122 41/128/123 37/125/124 
s 16
f 38/102/125 40/104/126 44/108/127 42/106/128 
s 32
f 45/109/129 48/112/130 44/130/131 40/129/132 
s 64
f 39/131/133 37/132/134 41/133/135 43/134/136 
s 2
f 40/136/137 38/137/138 46/110/139 45/135/140 
s 4
f 42/138/141 44/139/142 48/140/143 47/111/144 
s 8
f 38/142/145 42/143/146 47/144/147 46/141/148 
s 32
f 49/113/149 52/116/150 48/112/151 45/109/152 
s 2
f 45/146/153 46/110/154 51/115/155 49/145/156 
s 4
f 47/111/157 48/147/158 52/148/159 50/114/160 
s 8
f 46/150/161 47/151/162 50/152/163 51/149/164 
s 32
f 59/123/165 58/122/166 52/116/167 49/113/168 
s 2
f 59/153/169 57/121/170 55/119/171 53/117/172 
s 4
f 60/124/173 58/154/174 56/120/175 54/118/176 
s 8
f 57/156/177 60/157/178 54/158/179 55/155/180 
s 32
f 39/160/181 43/161/182 56/162/183 53/159/184 
f 53/163/185 56/164/186 58/122/187 59/123/188 
s 2
f 49/166/189 51/115/190 57/121/191 59/165/192 
s 4
f 50/114/193 52/167/194 58/168/195 60/124/196 
s 8
f 51/170/197 50/171/198 60/172/199 57/169/200 
# 50 polygons

